<?xml version="1.0" encoding="UTF-8" standalone="no"?>
<!-- Created with Inkscape (http://www.inkscape.org/) -->

<svg
   width="600"
   height="600"
   viewBox="0 0 158.75 158.75"
   version="1.1"
   id="svg1"
   xml:space="preserve"
   inkscape:version="1.4.2 (2aeb623e1d, 2025-05-12)"
   sodipodi:docname="kindness_logo.svg"
   xmlns:inkscape="http://www.inkscape.org/namespaces/inkscape"
   xmlns:sodipodi="http://sodipodi.sourceforge.net/DTD/sodipodi-0.dtd"
   xmlns="http://www.w3.org/2000/svg"
   xmlns:svg="http://www.w3.org/2000/svg"><sodipodi:namedview
     id="namedview1"
     pagecolor="#ffffff"
     bordercolor="#000000"
     borderopacity="0.25"
     inkscape:showpageshadow="2"
     inkscape:pageopacity="0.0"
     inkscape:pagecheckerboard="0"
     inkscape:deskcolor="#d1d1d1"
     inkscape:document-units="px"
     inkscape:zoom="1.036062"
     inkscape:cx="397.177"
     inkscape:cy="407.31153"
     inkscape:window-width="1776"
     inkscape:window-height="1348"
     inkscape:window-x="26"
     inkscape:window-y="23"
     inkscape:window-maximized="0"
     inkscape:current-layer="layer1" /><defs
     id="defs1" /><g
     inkscape:label="Layer 1"
     inkscape:groupmode="layer"
     id="layer1"><g
       id="g4"
       transform="matrix(0.29899911,0,0,0.29899911,2.8315265,2.8312278)"><path
         d="m 90.711,324.624 c -0.824,0 -1.662,-0.089 -2.485,-0.241 -0.799,-0.165 -1.599,-0.406 -2.371,-0.723 -0.762,-0.317 -1.497,-0.71 -2.182,-1.166 -0.697,-0.469 -1.344,-1.002 -1.927,-1.585 -0.583,-0.583 -1.116,-1.23 -1.585,-1.927 -0.456,-0.685 -0.849,-1.42 -1.166,-2.181 -0.317,-0.773 -0.558,-1.572 -0.723,-2.371 -0.165,-0.824 -0.24,-1.661 -0.24,-2.485 0,-0.824 0.076,-1.661 0.24,-2.472 0.165,-0.811 0.406,-1.61 0.723,-2.371 0.317,-0.773 0.71,-1.509 1.166,-2.193 0.469,-0.697 1.002,-1.344 1.585,-1.927 0.583,-0.583 1.23,-1.116 1.927,-1.572 0.685,-0.456 1.42,-0.849 2.182,-1.166 0.772,-0.317 1.572,-0.558 2.371,-0.723 1.635,-0.33 3.322,-0.33 4.956,0 0.813,0.165 1.611,0.406 2.371,0.723 0.773,0.317 1.509,0.71 2.193,1.166 0.697,0.456 1.344,0.989 1.927,1.572 0.583,0.583 1.116,1.23 1.572,1.927 0.456,0.685 0.849,1.42 1.166,2.193 0.317,0.761 0.558,1.559 0.723,2.371 0.165,0.812 0.254,1.648 0.254,2.472 0,0.824 -0.089,1.661 -0.254,2.485 -0.165,0.799 -0.406,1.597 -0.723,2.371 -0.317,0.761 -0.71,1.496 -1.166,2.181 -0.456,0.697 -0.989,1.344 -1.572,1.927 -0.583,0.583 -1.23,1.116 -1.927,1.585 -0.685,0.456 -1.42,0.849 -2.193,1.166 -0.761,0.317 -1.558,0.558 -2.371,0.723 -0.812,0.153 -1.649,0.241 -2.471,0.241 z"
         id="path1" /><rect
         x="125.039"
         y="99.226997"
         style="fill:#5599ff;fill-opacity:1"
         width="246.705"
         height="313.55399"
         id="rect1" /><polygon
         style="fill:#0055d4;fill-opacity:1"
         points="371.747,221.106 371.747,327.933 455.397,212.913 471.533,229.049 499.322,201.26 436.572,138.51 408.782,166.299 424.918,182.435 "
         id="polygon1" /><path
         style="fill:#ffd42a;fill-opacity:1"
         d="m 287.764,278.73 c 54.718,31.591 54.718,-77.053 0,-45.461 54.718,-31.591 -39.37,-85.913 -39.37,-22.731 0,-63.182 -94.089,-8.862 -39.37,22.731 -54.718,-31.591 -54.718,77.053 0,45.461 -54.718,31.591 39.37,85.913 39.37,22.731 0,63.184 94.088,8.862 39.37,-22.731 z"
         id="path2" /><path
         d="m 508.288,192.296 -62.751,-62.75 c -4.952,-4.951 -12.977,-4.949 -17.93,0 l -27.789,27.789 c -4.951,4.951 -4.951,12.978 0,17.929 l 5.645,5.645 -21.04,15.301 V 99.221 c 0,-7.002 -5.677,-12.678 -12.678,-12.678 H 125.04 c -7.001,0 -12.678,5.676 -12.678,12.678 v 49.904 C 84.298,130.391 45.915,133.391 21.162,158.141 7.517,171.79 0,189.937 0,209.238 c 0,19.301 7.517,37.448 21.164,51.097 l 33.23,33.23 c 2.476,2.475 5.72,3.713 8.964,3.713 3.244,0 6.488,-1.239 8.964,-3.713 4.951,-4.951 4.951,-12.978 0,-17.93 l -33.23,-33.23 c -18.29,-18.289 -18.29,-48.047 0,-66.335 18.291,-18.289 48.051,-18.287 66.337,0 l 6.933,6.933 v 229.776 c 0,7.002 5.677,12.678 12.678,12.678 h 246.705 c 7.001,0 12.678,-5.676 12.678,-12.678 v -80.723 l 72.5,-99.686 5.644,5.645 c 2.377,2.377 5.602,3.713 8.964,3.713 3.362,0 6.586,-1.336 8.964,-3.713 l 27.79,-27.789 c 2.377,-2.377 3.713,-5.602 3.713,-8.964 0.002,-3.363 -1.333,-6.589 -3.71,-8.966 z M 359.068,400.101 H 137.718 V 111.899 h 221.35 v 109.207 106.829 z m 112.464,-188.98 -7.17,-7.172 c -2.622,-2.623 -6.268,-3.964 -9.957,-3.674 -3.697,0.29 -7.08,2.183 -9.261,5.181 l -60.72,83.491 v -61.386 l 47.95,-34.873 c 2.998,-2.181 4.891,-5.565 5.183,-9.261 0.29,-3.697 -1.053,-7.334 -3.674,-9.956 l -7.172,-7.172 9.861,-9.861 44.822,44.822 z"
         id="path3" /><path
         d="m 316.83,216.487 c 1.605,-8.026 -0.218,-14.758 -1.341,-17.845 -6.999,-19.229 -30.814,-32.983 -50.97,-29.427 -3.235,0.57 -9.977,2.358 -16.126,7.761 -6.149,-5.402 -12.891,-7.191 -16.126,-7.761 -20.151,-3.554 -43.971,10.198 -50.97,29.427 -1.124,3.088 -2.946,9.82 -1.343,17.846 -7.752,2.623 -12.671,7.567 -14.783,10.085 -13.154,15.677 -13.154,43.179 0,58.856 2.112,2.517 7.03,7.462 14.783,10.085 -1.605,8.026 0.218,14.758 1.343,17.845 6.254,17.182 25.931,29.99 44.427,29.988 2.205,0 4.397,-0.183 6.543,-0.56 3.235,-0.57 9.977,-2.358 16.126,-7.761 6.149,5.402 12.891,7.191 16.126,7.761 2.148,0.379 4.337,0.56 6.543,0.56 18.495,0 38.173,-12.808 44.427,-29.988 1.123,-3.088 2.945,-9.82 1.341,-17.846 7.752,-2.623 12.672,-7.569 14.785,-10.085 13.154,-15.676 13.154,-43.179 0,-58.854 -2.112,-2.518 -7.03,-7.464 -14.785,-10.087 z m -4.639,52.642 c -3.403,4.052 -9.488,3.588 -18.09,-1.378 -6.065,-3.502 -13.817,-1.422 -17.318,4.64 -1.152,1.995 -1.7,4.173 -1.701,6.324 -10e-4,4.383 2.273,8.645 6.341,10.994 8.603,4.967 12.047,10.006 10.238,14.976 -2.794,7.676 -14.698,14.549 -22.741,13.129 -5.209,-0.919 -7.851,-6.421 -7.851,-16.354 0,-7.002 -5.677,-12.678 -12.678,-12.678 -7.001,0 -12.678,5.676 -12.678,12.678 0,9.933 -2.642,15.436 -7.851,16.354 -8.054,1.417 -19.947,-5.454 -22.741,-13.129 -1.81,-4.971 1.635,-10.01 10.237,-14.976 4.068,-2.349 6.343,-6.611 6.341,-10.994 -0.001,-2.15 -0.549,-4.328 -1.701,-6.324 -3.5,-6.062 -11.254,-8.142 -17.318,-4.64 -8.602,4.967 -14.689,5.431 -18.09,1.378 -5.251,-6.258 -5.251,-20.001 0,-26.259 3.404,-4.05 9.487,-3.589 18.09,1.378 6.066,3.5 13.816,1.424 17.318,-4.64 1.152,-1.995 1.7,-4.173 1.701,-6.324 10e-4,-4.383 -2.273,-8.645 -6.341,-10.994 -8.602,-4.967 -12.048,-10.006 -10.237,-14.976 2.794,-7.676 14.705,-14.546 22.741,-13.129 5.209,0.919 7.851,6.421 7.851,16.354 0,7.002 5.677,12.678 12.678,12.678 7.001,0 12.678,-5.676 12.678,-12.678 0,-9.933 2.642,-15.436 7.851,-16.354 8.041,-1.422 19.946,5.454 22.741,13.129 1.809,4.971 -1.635,10.01 -10.238,14.976 -4.068,2.349 -6.343,6.611 -6.341,10.994 0.001,2.15 0.549,4.328 1.701,6.324 3.502,6.064 11.256,8.143 17.318,4.64 8.602,-4.966 14.688,-5.431 18.09,-1.378 5.251,6.259 5.251,20.002 0,26.259 z"
         id="path4" /><path
         d="m 248.394,268.678 c -0.824,0 -1.662,-0.089 -2.472,-0.254 -0.811,-0.152 -1.61,-0.406 -2.371,-0.723 -0.773,-0.317 -1.507,-0.71 -2.192,-1.166 -0.699,-0.456 -1.345,-0.989 -1.928,-1.572 -2.358,-2.358 -3.715,-5.629 -3.715,-8.963 0,-0.824 0.076,-1.661 0.24,-2.472 0.164,-0.811 0.418,-1.61 0.735,-2.371 0.317,-0.773 0.711,-1.509 1.166,-2.193 0.456,-0.697 0.989,-1.344 1.572,-1.927 0.583,-0.583 1.23,-1.116 1.928,-1.572 0.685,-0.456 1.419,-0.849 2.192,-1.166 0.762,-0.317 1.559,-0.558 2.371,-0.723 1.635,-0.33 3.309,-0.33 4.944,0 0.811,0.165 1.61,0.406 2.369,0.723 0.773,0.317 1.509,0.71 2.193,1.166 0.697,0.456 1.344,0.989 1.927,1.572 0.584,0.583 1.117,1.23 1.572,1.927 0.456,0.685 0.849,1.42 1.166,2.193 0.317,0.761 0.57,1.559 0.735,2.371 0.165,0.811 0.241,1.648 0.241,2.472 0,0.824 -0.077,1.661 -0.241,2.472 -0.165,0.811 -0.418,1.61 -0.735,2.371 -0.317,0.773 -0.71,1.509 -1.166,2.193 -0.455,0.697 -0.988,1.344 -1.572,1.927 -2.354,2.357 -5.625,3.715 -8.959,3.715 z"
         id="path5" /></g></g></svg>
